<?xml version="1.0" standalone="no"?><!DOCTYPE svg PUBLIC "-//W3C//DTD SVG 1.1//EN" "http://www.w3.org/Graphics/SVG/1.1/DTD/svg11.dtd"><svg height="478" node-id="1" sillyvg="true" template-height="478" template-width="352" version="1.1" viewBox="0 0 352 478" width="352" xmlns="http://www.w3.org/2000/svg" xmlns:xlink="http://www.w3.org/1999/xlink"><defs node-id="21"></defs><g node-id="23"><g node-id="24"><g node-id="25"><path d="M 40.95 460.18 L 62.22 451.47 L 81.26 444.20 L 98.24 438.26 L 113.34 433.51 L 126.70 429.82 L 138.49 427.07 L 148.84 425.17 L 157.90 424.00 L 165.80 423.47 L 172.65 423.49 L 178.59 424.00 L 183.70 424.91 L 188.11 426.19 L 193.22 428.22 L 197.93 430.42 L 202.26 432.79 L 208.43 436.69 L 213.84 440.55 L 223.32 447.95 L 227.55 451.15 L 231.14 453.48 L 233.57 454.71 L 235.75 455.40 L 237.74 455.63 L 239.67 455.36 L 241.59 454.48 L 243.58 452.88 L 245.24 450.88 L 247.08 447.91 L 249.10 443.72 L 250.46 439.88 L 251.34 435.97 L 251.76 431.97 L 251.71 427.84 L 251.22 423.76 L 250.30 419.64 L 248.93 415.49 L 247.09 411.27 L 244.92 407.27 L 242.34 403.32 L 239.32 399.42 L 235.83 395.55 L 232.12 392.00 L 228.01 388.60 L 223.49 385.34 L 218.50 382.24 L 213.41 379.51 L 207.92 377.04 L 202.03 374.83 L 195.71 372.88 L 189.38 371.36 L 182.67 370.21 L 175.57 369.42 L 168.03 369.03 L 161.63 369.19 L 155.24 369.82 L 148.85 370.92 L 142.42 372.51 L 134.04 375.22 L 125.76 378.55 L 117.56 382.50 L 109.60 386.93 L 101.90 391.71 L 94.46 396.86 L 87.23 402.32 L 80.46 407.84 L 74.12 413.43 L 65.12 422.04 L 57.55 430.06 L 50.76 438.01 L 45.76 444.59 L 42.80 449.03 L 40.88 452.39 L 39.76 454.88 L 37.99 460.46 L 40.95 460.18 Z" fill="#ffae00" fill-rule="evenodd" group-id="1,2,3" id="路径-366" node-id="9" stroke="none" target-height="91.43085" target-width="213.7785" target-x="37.98535" target-y="369.03308"></path></g><g node-id="26"><path d="M 57.86 419.73 L 82.07 396.03 L 101.55 377.72 L 116.99 363.97 L 129.00 353.98 L 138.18 347.05 L 145.03 342.52 L 145.71 342.30 L 145.98 342.49 L 145.99 343.19 L 145.62 344.63 L 144.79 346.88 L 142.84 351.65 L 141.98 353.95 L 141.56 355.50 L 141.54 356.32 L 141.79 356.59 L 142.38 356.49 L 143.49 355.68 L 145.75 353.51 L 151.23 347.63 L 157.40 340.82 L 162.84 335.04 L 165.07 332.95 L 166.12 332.26 L 175.52 329.16 L 185.13 326.53 L 194.97 324.37 L 205.03 322.68 L 215.69 321.45 L 225.98 320.82 L 235.93 320.77 L 245.55 321.29 L 254.87 322.36 L 263.92 323.97 L 272.70 326.10 L 273.13 326.46 L 273.55 327.38 L 273.91 329.24 L 274.18 332.19 L 274.34 336.06 L 274.51 344.13 L 274.67 348.01 L 274.93 350.99 L 275.28 352.88 L 275.69 353.83 L 276.10 354.22 L 276.60 354.15 L 277.30 353.59 L 278.33 352.18 L 279.70 349.77 L 281.32 346.50 L 284.56 339.62 L 286.19 336.36 L 287.54 333.99 L 288.56 332.59 L 289.25 332.07 L 289.74 332.03 L 295.24 334.64 L 301.56 338.25 L 308.83 343.03 L 317.14 349.15 L 326.61 356.83 L 337.38 366.26 L 349.57 377.67 L 351.08 381.23 L 351.83 384.44 L 351.93 387.37 L 351.44 390.09 L 350.36 392.68 L 348.63 395.18 L 346.16 397.64 L 342.79 400.05 L 340.15 401.42 L 337.29 402.50 L 334.20 403.27 L 330.84 403.72 L 326.34 403.92 L 321.33 403.80 L 315.75 403.33 L 297.47 401.01 L 287.33 399.82 L 275.98 398.91 L 263.11 398.07 L 245.11 396.99 L 244.41 396.73 L 243.40 395.95 L 241.95 394.34 L 236.49 388.08 L 234.10 385.67 L 231.13 383.10 L 227.52 380.35 L 223.73 377.92 L 219.20 375.57 L 213.82 373.33 L 212.92 373.32 L 212.57 373.66 L 212.60 374.44 L 213.21 375.95 L 214.60 378.35 L 218.29 383.72 L 222.15 389.21 L 223.75 391.72 L 224.64 393.47 L 224.93 394.51 L 224.77 394.98 L 224.26 395.16 L 211.59 395.06 L 197.84 395.29 L 183.83 395.91 L 169.25 397.00 L 154.61 398.61 L 139.92 400.81 L 130.16 402.63 L 120.60 404.77 L 111.22 407.23 L 101.96 410.06 L 93.08 413.25 L 84.58 416.78 L 76.30 420.80 L 68.58 425.21 L 61.38 430.00 L 57.86 419.73 Z" fill="#83ba89" fill-rule="evenodd" group-id="1,2,4" id="路径-368" node-id="10" stroke="none" target-height="109.23129" target-width="294.06927" target-x="57.860535" target-y="320.77234"></path></g><g node-id="27"><path d="M 64.66 446.22 L 71.59 437.85 L 77.94 429.22 L 83.73 420.34 L 88.97 411.19 L 93.67 401.75 L 97.85 392.02 L 101.49 381.96 L 104.61 371.58 L 107.19 360.84 L 109.23 349.71 L 110.72 338.19 L 111.65 326.24 L 111.99 313.84 L 111.78 299.68 L 111.20 288.47 L 110.22 278.14 L 109.09 270.08 L 107.70 262.68 L 106.34 256.85 L 103.64 246.99 L 102.51 242.69 L 101.68 238.67 L 101.20 234.60 L 101.14 230.10 L 101.59 225.37 L 102.71 219.47 L 104.40 213.14 L 107.07 204.95 L 109.82 196.31 L 112.06 187.77 L 113.83 179.33 L 115.11 170.98 L 116.01 162.51 L 116.54 154.24 L 116.72 146.18 L 116.54 138.31 L 115.83 127.78 L 114.70 117.86 L 113.17 108.50 L 111.23 99.18 L 109.11 90.73 L 106.85 83.09 L 104.13 73.80 L 101.72 63.95 L 99.75 53.96 L 98.33 44.13 L 97.70 37.56 L 97.41 31.38 L 97.43 25.59 L 97.84 19.79 L 98.63 14.71 L 99.77 10.27 L 101.01 7.01 L 102.49 4.28 L 104.18 2.00 L 106.10 0.13 L 98.61 3.96 L 91.47 8.21 L 84.64 12.89 L 78.14 18.01 L 71.93 23.58 L 66.01 29.61 L 60.37 36.13 L 55.02 43.15 L 49.94 50.70 L 45.14 58.82 L 40.64 67.53 L 36.42 76.86 L 33.88 83.78 L 32.05 90.51 L 30.89 97.07 L 30.26 103.72 L 30.08 110.26 L 30.34 116.70 L 31.34 126.31 L 32.86 135.75 L 36.58 154.25 L 38.30 163.35 L 39.60 172.23 L 40.13 178.14 L 40.28 183.96 L 40.03 189.70 L 39.28 195.38 L 37.94 201.03 L 35.97 206.68 L 34.12 210.73 L 31.79 214.82 L 28.95 218.98 L 25.55 223.21 L 20.38 229.59 L 16.29 235.45 L 13.16 240.85 L 10.52 246.52 L 8.61 251.85 L 7.35 256.87 L 6.57 262.00 L 6.23 266.97 L 6.32 271.79 L 7.05 279.00 L 8.31 286.13 L 11.53 300.42 L 13.03 307.67 L 14.19 315.16 L 14.66 320.21 L 14.78 325.45 L 14.53 330.90 L 13.47 345.08 L 12.83 358.34 L 12.69 371.38 L 13.11 383.89 L 13.75 392.15 L 14.71 400.36 L 16.00 408.51 L 17.63 416.61 L 19.66 424.83 L 22.11 433.20 L 29.91 457.81 L 64.66 446.22 Z" fill="#85c3eb" fill-rule="evenodd" group-id="1,2,5" id="路径-371" node-id="11" stroke="none" target-height="457.67792" target-width="110.486465" target-x="6.2287292" target-y="0.127182"></path></g><g node-id="28"><path d="M 59.16 446.22 L 66.09 437.85 L 72.44 429.22 L 78.23 420.34 L 83.47 411.19 L 88.17 401.75 L 92.34 392.02 L 95.99 381.96 L 99.10 371.58 L 101.69 360.84 L 103.73 349.71 L 105.22 338.19 L 106.14 326.24 L 106.48 313.84 L 106.28 299.68 L 105.69 288.47 L 104.72 278.14 L 103.58 270.08 L 102.19 262.68 L 100.84 256.85 L 98.14 246.99 L 97.01 242.69 L 96.18 238.67 L 95.69 234.60 L 95.64 230.10 L 96.09 225.37 L 97.21 219.47 L 98.89 213.14 L 101.57 204.95 L 104.31 196.31 L 106.56 187.77 L 108.32 179.33 L 109.61 170.98 L 110.51 162.51 L 111.04 154.24 L 111.21 146.18 L 111.03 138.31 L 110.33 127.78 L 109.20 117.86 L 107.67 108.50 L 105.73 99.18 L 103.61 90.73 L 101.35 83.09 L 98.70 73.82 L 96.49 64.10 L 94.81 54.26 L 93.75 44.63 L 93.38 38.20 L 93.35 32.16 L 93.62 26.50 L 94.27 20.85 L 95.28 15.89 L 96.61 11.52 L 97.96 8.34 L 99.52 5.65 L 101.27 3.40 L 103.21 1.53 L 95.23 5.18 L 87.65 9.27 L 80.46 13.80 L 73.64 18.78 L 67.16 24.22 L 61.02 30.14 L 55.20 36.54 L 49.71 43.46 L 44.53 50.92 L 39.67 58.95 L 35.13 67.59 L 30.92 76.86 L 28.38 83.78 L 26.55 90.51 L 25.39 97.07 L 24.76 103.72 L 24.57 110.26 L 24.84 116.70 L 25.83 126.31 L 27.36 135.75 L 31.08 154.25 L 32.80 163.35 L 34.09 172.23 L 34.63 178.14 L 34.77 183.96 L 34.52 189.70 L 33.78 195.38 L 32.44 201.03 L 30.47 206.68 L 28.62 210.73 L 26.29 214.82 L 23.45 218.98 L 20.05 223.21 L 14.88 229.59 L 10.79 235.45 L 7.66 240.85 L 5.02 246.52 L 3.10 251.85 L 1.85 256.87 L 1.06 262.00 L 0.73 266.97 L 0.82 271.79 L 1.55 279.00 L 2.81 286.13 L 6.02 300.42 L 7.53 307.67 L 8.69 315.16 L 9.16 320.21 L 9.28 325.45 L 9.03 330.90 L 7.96 345.08 L 7.33 358.34 L 7.19 371.38 L 7.61 383.89 L 8.25 392.15 L 9.21 400.36 L 10.50 408.51 L 12.12 416.61 L 14.16 424.83 L 16.61 433.20 L 24.40 457.81 L 59.16 446.22 Z" fill="#addfff" fill-rule="evenodd" group-id="1,2,6" id="路径-371" node-id="12" stroke="none" target-height="456.2736" target-width="110.48648" target-x="0.72631836" target-y="1.5315247"></path></g><path d="M 67.73 451.37 L 80.86 445.33 L 93.28 438.98 L 105.03 432.31 L 116.13 425.34 L 126.60 418.06 L 136.49 410.47 L 145.80 402.59 L 154.55 394.39 L 162.78 385.89 L 170.48 377.06 L 177.68 367.91 L 184.38 358.42 L 190.61 348.59 L 197.64 336.30 L 203.28 325.57 L 208.31 315.16 L 212.45 305.91 L 219.57 288.74 L 222.85 280.74 L 226.12 273.17 L 229.63 265.74 L 233.57 258.33 L 238.01 251.03 L 243.38 243.34 L 247.27 238.35 L 251.80 233.03 L 257.02 227.35 L 262.43 221.87 L 268.71 215.92 L 275.96 209.45 L 281.89 203.95 L 287.59 197.93 L 293.06 191.34 L 298.30 184.17 L 303.31 176.38 L 308.09 167.94 L 312.62 158.79 L 316.90 148.90 L 320.92 138.21 L 324.65 126.69 L 328.08 114.29 L 331.19 100.93 L 333.95 86.58 L 336.34 71.17 L 338.34 54.65 L 339.90 36.94 L 341.00 18.00 L 332.41 32.73 L 324.24 45.79 L 316.50 57.30 L 309.14 67.39 L 302.16 76.18 L 295.54 83.77 L 289.25 90.27 L 283.28 95.78 L 277.60 100.40 L 272.20 104.20 L 271.42 105.24 L 270.45 107.91 L 268.84 115.10 L 267.25 123.44 L 266.40 127.45 L 265.59 130.60 L 264.90 132.59 L 264.29 133.70 L 263.76 134.24 L 263.24 134.34 L 262.78 134.07 L 262.33 133.27 L 261.88 131.70 L 261.47 129.29 L 260.89 123.80 L 260.30 118.29 L 259.87 115.87 L 259.39 114.26 L 258.91 113.44 L 258.42 113.14 L 257.86 113.21 L 251.70 116.09 L 244.66 119.13 L 237.35 122.06 L 229.59 124.94 L 221.73 127.65 L 213.87 130.14 L 206.04 132.39 L 198.67 134.24 L 188.66 136.87 L 178.91 139.99 L 169.38 143.60 L 160.07 147.70 L 150.96 152.25 L 142.10 157.19 L 133.49 162.51 L 125.13 168.23 L 116.99 174.29 L 109.15 180.62 L 101.59 187.23 L 94.30 194.11 L 84.98 203.68 L 76.23 213.51 L 68.06 223.61 L 60.33 234.06 L 53.27 244.53 L 46.84 255.03 L 40.88 265.80 L 35.66 276.32 L 31.13 286.62 L 27.10 297.14 L 23.86 307.15 L 21.36 316.68 L 19.85 324.02 L 18.81 330.91 L 18.20 337.39 L 18.00 343.48 L 18.27 376.19 L 19.08 409.34 L 20.43 442.94 L 22.35 477.00 L 67.73 451.37 Z" fill="#ffcb5d" fill-rule="evenodd" group-id="1,2" id="路径-372" node-id="13" stroke="none" target-height="459" target-width="323" target-x="18" target-y="18"></path><path d="M 348.69 19.31 L 350.00 17.00 L 349.95 18.15 L 348.85 37.12 L 347.28 54.85 L 345.29 71.40 L 342.89 86.83 L 340.12 101.21 L 337.01 114.58 L 333.57 127.02 L 329.83 138.56 L 325.80 149.26 L 321.51 159.17 L 316.96 168.34 L 312.17 176.81 L 307.14 184.62 L 301.88 191.81 L 296.40 198.41 L 290.68 204.45 L 284.73 209.97 L 277.66 216.26 L 271.41 222.17 L 265.91 227.72 L 260.61 233.47 L 255.89 239.04 L 251.72 244.42 L 247.80 250.00 L 244.23 255.59 L 241.01 261.22 L 240.59 262.00 L 238.29 266.46 L 235.97 271.29 L 231.13 282.44 L 228.85 288.00 L 227.38 291.60 L 226.07 294.80 L 225.25 296.83 L 224.41 298.85 L 221.52 305.71 L 218.70 312.11 L 214.41 321.28 L 209.81 330.45 L 204.87 339.58 L 199.33 349.16 L 193.09 359.01 L 186.37 368.52 L 179.16 377.69 L 171.43 386.53 L 163.19 395.06 L 154.42 403.27 L 145.09 411.17 L 135.18 418.77 L 124.68 426.06 L 113.56 433.05 L 101.78 439.73 L 89.34 446.10 L 76.18 452.14 L 30.38 478.00 L 30.35 477.56 L 28.44 443.46 L 27.08 409.83 L 26.27 376.65 L 26.00 343.91 L 26.21 337.64 L 26.84 331.01 L 27.92 323.99 L 29.47 316.56 L 32.04 306.90 L 35.34 296.80 L 39.43 286.25 L 44.01 275.92 L 49.27 265.42 L 55.22 254.74 L 61.62 244.32 L 68.60 234.00 L 76.18 223.76 L 83.40 214.79 L 90.85 206.25 L 98.53 198.11 L 106.44 190.37 L 114.59 183.02 L 123.10 175.96 L 131.76 169.39 L 140.59 163.31 L 149.58 157.69 L 158.74 152.53 L 168.20 147.78 L 177.76 143.59 L 187.42 139.94 L 197.20 136.81 L 207.11 134.21 L 214.20 132.43 L 221.88 130.24 L 229.62 127.81 L 237.47 125.12 L 245.24 122.24 L 252.68 119.28 L 259.89 116.19 L 266.32 113.19 L 267.10 113.07 L 267.76 113.55 L 268.25 114.48 L 268.74 116.14 L 268.84 116.62 L 269.19 118.80 L 269.54 121.88 L 269.92 125.87 L 270.31 129.42 L 270.69 131.75 L 270.72 131.86 L 271.10 133.24 L 271.45 133.97 L 271.82 134.31 L 272.21 134.24 L 272.65 133.84 L 273.20 132.85 L 273.89 130.87 L 274.75 127.47 L 275.97 121.50 L 276.90 116.56 L 278.05 110.93 L 278.87 107.65 L 279.84 105.13 L 280.59 104.21 L 280.64 104.18 L 285.99 100.42 L 291.61 95.86 L 297.52 90.42 L 303.74 84.00 L 310.30 76.52 L 317.20 67.87 L 324.47 57.94 L 332.13 46.62 L 340.20 33.78 L 348.69 19.31 Z M 349.27 20.93 L 349.35 19.28 L 348.43 20.88 L 339.13 36.59 L 330.34 50.35 L 322.03 62.31 L 314.18 72.64 L 306.77 81.48 L 299.76 88.97 L 293.14 95.25 L 286.88 100.44 L 280.94 104.64 L 280.30 105.42 L 279.41 107.81 L 278.63 110.89 L 277.55 116.10 L 276.45 121.92 L 274.97 128.98 L 274.29 131.49 L 273.74 133.01 L 273.07 134.19 L 272.48 134.72 L 271.92 134.87 L 271.45 134.74 L 270.99 134.27 L 270.61 133.50 L 270.23 132.19 L 270.18 131.98 L 269.77 129.58 L 269.37 125.93 L 269.01 122.18 L 268.63 118.73 L 268.22 116.37 L 268.20 116.26 L 267.57 114.29 L 267.04 113.67 L 266.56 113.68 L 260.12 116.69 L 252.90 119.79 L 245.44 122.76 L 237.65 125.64 L 229.79 128.33 L 222.03 130.77 L 214.34 132.96 L 207.23 134.75 L 197.35 137.34 L 187.59 140.46 L 177.96 144.10 L 168.43 148.29 L 158.99 153.02 L 149.85 158.17 L 140.88 163.77 L 132.08 169.85 L 123.43 176.40 L 114.94 183.44 L 106.81 190.78 L 98.92 198.50 L 91.26 206.62 L 83.82 215.15 L 76.61 224.10 L 69.05 234.31 L 62.09 244.61 L 55.70 255.00 L 49.76 265.66 L 44.52 276.13 L 39.95 286.44 L 35.87 296.96 L 32.58 307.03 L 30.01 316.66 L 28.46 324.07 L 27.39 331.06 L 26.76 337.66 L 26.55 343.91 L 26.55 346.76 L 26.84 378.10 L 27.63 409.84 L 28.92 441.99 L 30.71 474.57 L 30.87 477.09 L 75.94 451.65 L 89.07 445.61 L 101.50 439.26 L 113.26 432.59 L 124.36 425.61 L 134.85 418.33 L 144.74 410.74 L 154.05 402.86 L 162.81 394.66 L 171.03 386.16 L 178.74 377.34 L 185.93 368.19 L 192.64 358.71 L 198.86 348.87 L 204.25 339.56 L 209.07 330.67 L 213.57 321.76 L 217.76 312.86 L 218.20 311.89 L 220.89 305.79 L 223.63 299.29 L 225.09 295.75 L 226.62 292.00 L 228.52 287.35 L 230.09 283.50 L 230.39 282.78 L 235.57 270.84 L 238.04 265.72 L 240.53 260.96 L 243.76 255.31 L 247.34 249.69 L 251.28 244.10 L 255.46 238.70 L 260.19 233.12 L 265.50 227.34 L 271.02 221.78 L 277.28 215.86 L 284.37 209.55 L 290.25 204.11 L 295.90 198.14 L 301.32 191.63 L 306.53 184.55 L 311.50 176.85 L 316.25 168.51 L 320.76 159.48 L 325.02 149.72 L 329.02 139.19 L 332.74 127.84 L 336.17 115.62 L 339.29 102.47 L 342.06 88.35 L 344.48 73.19 L 346.50 56.94 L 348.11 39.54 L 349.27 20.93 Z" fill="#00103f" fill-rule="nonzero" group-id="1,2" id="路径-372" node-id="14" stroke="none" target-height="461" target-width="324" target-x="26" target-y="17"></path><path d="M 139.53 166.18 L 139.17 166.02 L 139.02 166.38 L 144.11 180.33 L 148.20 193.08 L 151.36 204.71 L 153.69 215.31 L 155.27 224.96 L 156.17 233.74 L 156.45 241.72 L 156.73 242.00 L 157.00 241.72 L 156.71 233.71 L 155.81 224.90 L 154.23 215.22 L 151.89 204.58 L 148.72 192.92 L 144.63 180.15 L 139.53 166.18 Z" fill="#115682" fill-rule="nonzero" group-id="1,2" id="路径-451" node-id="15" stroke="none" target-height="75.98111" target-width="17.981293" target-x="139.0187" target-y="166.01889"></path><path d="M 287.61 165.03 L 287.97 165.16 L 287.84 165.53 L 278.85 169.57 L 269.38 173.30 L 259.42 176.72 L 248.94 179.82 L 237.92 182.58 L 226.32 185.00 L 226.00 184.77 L 226.22 184.45 L 237.79 182.04 L 248.79 179.28 L 259.25 176.19 L 269.19 172.78 L 278.63 169.06 L 287.61 165.03 Z" fill="#115682" fill-rule="nonzero" group-id="1,2,7" id="路径-452" node-id="16" stroke="none" target-height="19.968628" target-width="61.969025" target-x="226.00467" target-y="165.02664"></path><path d="M 190.60 295.03 L 190.97 295.14 L 190.85 295.51 L 184.76 298.38 L 177.59 301.18 L 169.21 303.89 L 159.50 306.48 L 148.31 308.92 L 135.49 311.18 L 120.87 313.22 L 104.30 315.00 L 104.00 314.76 L 104.25 314.46 L 120.80 312.68 L 135.40 310.65 L 148.19 308.39 L 159.36 305.96 L 169.04 303.37 L 177.39 300.67 L 184.53 297.89 L 190.60 295.03 Z" fill="#115682" fill-rule="nonzero" group-id="1,2,8" id="路径-453" node-id="17" stroke="none" target-height="19.967896" target-width="86.96753" target-x="104.00122" target-y="295.03088"></path><path d="M 46.48 284.60 L 46.40 284.98 L 54.50 297.81 L 61.28 309.41 L 66.87 319.87 L 71.39 329.29 L 74.95 337.76 L 77.65 345.36 L 79.60 352.16 L 80.88 358.25 L 81.20 358.48 L 81.43 358.16 L 80.14 352.04 L 78.18 345.20 L 75.47 337.58 L 71.90 329.08 L 67.37 319.63 L 61.77 309.15 L 54.98 297.52 L 46.86 284.68 L 46.48 284.60 Z" fill="#115682" fill-rule="nonzero" group-id="1,2,9" id="路径-454" node-id="18" stroke="none" target-height="73.88318" target-width="35.02104" target-x="46.403976" target-y="284.5968"></path><path d="M 325.62 82.03 L 325.20 82.06 L 324.93 82.38 L 322.96 87.78 L 320.45 93.31 L 317.36 98.99 L 313.65 104.83 L 309.70 110.31 L 305.14 116.02 L 299.93 121.97 L 294.01 128.17 L 293.52 128.66 L 286.99 135.00 L 279.73 141.63 L 272.02 148.27 L 263.08 155.63 L 253.54 163.20 L 242.26 171.90 L 232.86 179.03 L 219.67 188.99 L 205.90 199.48 L 194.97 208.01 L 185.28 215.85 L 183.87 217.02 L 174.36 225.12 L 166.02 232.65 L 158.19 240.21 L 151.34 247.39 L 143.62 256.30 L 135.26 266.95 L 126.19 279.53 L 116.36 294.26 L 105.74 311.35 L 94.25 331.03 L 81.86 353.56 L 68.50 379.17 L 54.12 408.13 L 38.66 440.72 L 22.05 477.22 L 22.04 477.65 L 22.33 477.95 L 22.75 477.96 L 23.05 477.67 L 39.65 441.19 L 55.11 408.63 L 69.48 379.69 L 82.82 354.10 L 95.19 331.61 L 106.66 311.95 L 117.26 294.89 L 127.06 280.19 L 136.11 267.64 L 144.46 257.02 L 152.15 248.14 L 158.98 240.99 L 166.77 233.45 L 175.09 225.95 L 184.57 217.86 L 185.98 216.70 L 193.83 210.32 L 202.31 203.65 L 212.29 195.97 L 224.64 186.61 L 240.64 174.52 L 243.64 172.24 L 254.74 163.65 L 264.16 156.18 L 272.99 148.90 L 280.62 142.31 L 287.82 135.74 L 294.30 129.44 L 300.37 123.12 L 305.71 117.06 L 310.38 111.24 L 314.42 105.65 L 318.22 99.69 L 321.39 93.89 L 323.96 88.24 L 325.97 82.72 L 325.94 82.30 L 325.62 82.03 Z" fill="#115682" fill-rule="nonzero" group-id="1,2" id="路径-290" node-id="19" stroke="none" target-height="395.93732" target-width="303.9374" target-x="22.036285" target-y="82.026405"></path></g></g></svg>